<svg width="69" height="52" viewBox="0 0 69 52" fill="none" xmlns="http://www.w3.org/2000/svg">
<path d="M1.64286 43.3333C4.35357 43.3333 6.57143 46.2583 6.57143 49.8333C6.57143 51.025 7.31071 52 8.21429 52H60.7857C61.6893 52 62.4286 51.025 62.4286 49.8333C62.4286 46.2583 64.6464 43.3333 67.3571 43.3333C68.2607 43.3333 69 42.3583 69 41.1667V10.8333C69 9.64167 68.2607 8.66667 67.3571 8.66667C64.6464 8.66667 62.4286 5.74167 62.4286 2.16667C62.4286 0.975 61.6893 0 60.7857 0H8.21429C7.31071 0 6.57143 0.975 6.57143 2.16667C6.57143 5.74167 4.35357 8.66667 1.64286 8.66667C0.739286 8.66667 0 9.64167 0 10.8333V41.1667C0 42.3583 0.739286 43.3333 1.64286 43.3333ZM3.28571 12.7833C6.48929 11.9167 9.03571 8.55833 9.69286 4.33333H59.3071C59.9643 8.55833 62.5107 11.9167 65.7143 12.7833V39.2167C62.5107 40.0833 59.9643 43.4417 59.3071 47.6667H9.69286C9.03571 43.4417 6.48929 40.0833 3.28571 39.2167V12.7833Z" fill="#656565"/>
<path d="M28.045 32.0933L26.8801 40.9983C26.7816 41.8217 27.0278 42.6233 27.5364 43.1217C27.8153 43.4033 28.1599 43.5333 28.5045 43.5333C28.767 43.5333 29.0295 43.4467 29.2756 43.2733L35.3301 39.07L41.3845 43.2733C41.926 43.6417 42.6151 43.5767 43.1074 43.1C43.616 42.6017 43.8621 41.8 43.7637 40.9767L42.5987 32.0717L47.5046 25.7667C47.9641 25.1817 48.1117 24.3367 47.9148 23.5567C47.7179 22.7767 47.2093 22.1917 46.5858 22.0833L39.8094 20.7833L36.7904 12.68C36.2489 11.25 34.3784 11.25 33.8534 12.68L30.818 20.7833L24.0415 22.0833C23.4345 22.1917 22.9094 22.7767 22.7125 23.5567C22.5156 24.3583 22.6797 25.2033 23.1227 25.7667L28.045 32.0933ZM32.1634 24.9C32.7048 24.7917 33.1643 24.3583 33.394 23.7083L35.3301 18.53L37.2662 23.7083C37.5123 24.3583 37.9717 24.7917 38.4968 24.9L42.8284 25.7233L39.6945 29.7533C39.3008 30.2517 39.1367 30.9667 39.2187 31.6817L39.9571 37.38L36.0848 34.6933C35.8551 34.52 35.5926 34.4333 35.3137 34.4333C35.0347 34.4333 34.7722 34.52 34.5589 34.6933L30.6867 37.38L31.425 31.6817C31.5071 30.9883 31.343 30.2517 30.9492 29.775L27.8153 25.745L32.1634 24.9ZM15.6408 16.6667C16.5432 16.6667 17.2816 15.6917 17.2816 14.5V10.1667C17.2816 8.975 16.5432 8 15.6408 8C14.7383 8 14 8.975 14 10.1667V14.5C14 15.6917 14.7383 16.6667 15.6408 16.6667ZM15.6408 31.8333C16.5432 31.8333 17.2816 30.8583 17.2816 29.6667V25.3333C17.2816 24.1417 16.5432 23.1667 15.6408 23.1667C14.7383 23.1667 14 24.1417 14 25.3333V29.6667C14 30.8583 14.7383 31.8333 15.6408 31.8333ZM15.6408 47C16.5432 47 17.2816 46.025 17.2816 44.8333V40.5C17.2816 39.3083 16.5432 38.3333 15.6408 38.3333C14.7383 38.3333 14 39.3083 14 40.5V44.8333C14 46.025 14.7383 47 15.6408 47Z" fill="#656565"/>
</svg>
