<svg width="73" height="55" viewBox="0 0 73 55" fill="none" xmlns="http://www.w3.org/2000/svg">
<path d="M30.4779 0.850058L30.4797 0.850038L30.4848 0.850049H30.4851L30.4853 1.00005C30.7525 0.998203 31.0153 1.04845 31.2459 1.14543C31.4764 1.24242 31.666 1.3825 31.7943 1.55075L30.4779 0.850058ZM30.4779 0.850058C30.2137 0.85286 29.9532 0.903102 29.7199 0.997585V0.997585C25.7859 2.58479 23.1819 5.45067 22.6524 8.67996H2.47628H2.47627C2.0408 8.67999 1.64034 8.80652 1.34495 9.01862C1.04981 9.23054 0.850049 9.53659 0.85 9.88994V9.88996V19.6742C0.850049 20.0276 1.04981 20.3337 1.34495 20.5456C1.64034 20.7577 2.0408 20.8842 2.47627 20.8842H3.80257M30.4779 0.850058L3.80257 20.8842M3.80257 20.8842V52.94C3.80262 53.2934 4.00237 53.5994 4.29752 53.8113C4.59291 54.0234 4.99336 54.15 5.42884 54.15H32.0019H40.8596H67.4327C67.8682 54.15 68.2687 54.0234 68.5641 53.8113C68.8592 53.5994 69.059 53.2934 69.059 52.94V20.8842H70.5237C70.9592 20.8842 71.3597 20.7577 71.6551 20.5456C71.9502 20.3337 72.1499 20.0276 72.15 19.6743V9.88996C72.1499 9.53659 71.9502 9.23054 71.6551 9.01862C71.3597 8.80652 70.9592 8.67999 70.5237 8.67996H50.2092C49.6797 5.45071 47.0758 2.58485 43.1419 0.997638M3.80257 20.8842L41.6157 1.14543C41.3852 1.24242 41.1956 1.3825 41.0673 1.55075L40.9481 1.45966C41.095 1.26714 41.3073 1.11243 41.5576 1.00717C41.8081 0.901777 42.0912 0.848076 42.3773 0.850053L42.3775 0.850054C42.6438 0.852115 42.9066 0.902393 43.1419 0.997638M43.1419 0.997638C43.1419 0.997643 43.1419 0.997649 43.1419 0.997654L43.0856 1.13669L43.1417 0.997585C43.1418 0.997602 43.1418 0.99762 43.1419 0.997638ZM36.4308 7.36975L31.9136 1.45976L40.948 1.45976L36.4308 7.36975ZM30.0821 3.96467L33.6934 8.67996H32.0019H26.2188C26.6513 6.79554 27.9858 5.15908 30.0821 3.96467ZM39.1682 8.67996L42.7795 3.96468C44.8758 5.15908 46.2103 6.79554 46.6428 8.67996H40.8596H39.1682ZM4.10257 11.1H24.1592H30.3757V18.4643H4.10257V11.1ZM33.6282 11.1H36.4885H39.2334V51.73H33.6282V11.1ZM42.4859 11.1H48.7024H68.8974V18.4643H42.4859V11.1ZM7.05513 20.8842H30.3757V51.73H7.05513V20.8842ZM42.4859 20.8842H65.8065V51.73H42.4859V20.8842Z" fill="#3747DC" stroke="#3747DC" stroke-width="0.3"/>
</svg>
