<svg width="60" height="68" viewBox="0 0 60 68" fill="none" xmlns="http://www.w3.org/2000/svg">
<g clip-path="url(#clip0_81:373)">
<path d="M2.99316 60.1101V60.1099C2.99979 53.196 4.66689 46.4941 7.71633 41.1553C10.7653 35.8173 15.0161 32.1597 19.7545 30.845L19.9091 30.8021L20.0125 30.9248C20.7236 31.7683 21.4865 32.5118 22.291 33.146L22.7647 33.5195L22.1657 33.5906C17.62 34.1301 13.3525 37.1303 10.2252 42.0431C7.09804 46.9556 5.35267 53.4041 5.34645 60.1101C5.34645 60.1102 5.34645 60.1103 5.34645 60.1104M2.99316 60.1101H5.09645L5.34645 60.1104M2.99316 60.1101L2.99316 77.5708L2.99316 77.571C2.994 78.6814 3.29807 79.7571 3.85249 80.5607C4.40737 81.365 5.18329 81.8489 6.02269 81.8502H6.02309H52.3551H52.3555C53.1949 81.8489 53.9709 81.365 54.5257 80.5607C55.0801 79.7571 55.3842 78.6814 55.3851 77.571V77.5708V60.1101V60.1099C55.3784 53.196 53.7113 46.4941 50.6619 41.1553C47.6129 35.8173 43.3621 32.1597 38.6237 30.845L38.4691 30.8021L38.3657 30.9248C37.6546 31.7683 36.8917 32.5118 36.0872 33.146L35.6135 33.5195L36.2126 33.5906C40.7582 34.1301 45.0257 37.1303 48.153 42.0431C51.2802 46.9556 53.0256 53.4042 53.0318 60.1104L2.99316 60.1101ZM5.34645 60.1104V77.5706M5.34645 60.1104V77.5706M5.34645 77.5706L5.34645 77.5708L5.34645 77.5706Z" fill="#656565" stroke="#656565" stroke-width="0.5"/>
<path d="M43.125 16.8179C43.125 13.8759 42.3552 11 40.913 8.55377C39.4708 6.10759 37.421 4.20102 35.0227 3.07517C32.6244 1.94932 29.9854 1.65474 27.4394 2.2287C24.8934 2.80265 22.5548 4.21936 20.7192 6.29966C18.8837 8.37997 17.6336 11.0304 17.1272 13.9159C16.6208 16.8014 16.8807 19.7922 17.8741 22.5103C18.8675 25.2283 20.5498 27.5515 22.7081 29.186C24.8665 30.8205 27.4041 31.6929 30 31.6929C33.4798 31.6885 36.8159 30.1199 39.2765 27.3312C41.737 24.5426 43.1211 20.7616 43.125 16.8179ZM30 33.8179C28.6362 33.8175 27.2788 33.6056 25.9657 33.1882H25.9656L23.4444 56.4526C23.4223 56.6567 23.453 56.8638 23.5327 57.0486C23.6125 57.2334 23.7377 57.3881 23.8934 57.4938L29.4928 61.2919C29.6378 61.3903 29.8035 61.4425 29.9725 61.4429C30.1415 61.4432 30.3075 61.3918 30.4527 61.294L36.1034 57.4959C36.26 57.3906 36.3863 57.2358 36.4666 57.0505C36.5469 56.8652 36.5778 56.6575 36.5557 56.4526L34.0344 33.1882L34.0342 33.1882C32.7211 33.6056 31.3638 33.8175 30 33.8179Z" fill="#656565"/>
</g>
<defs>
<clipPath id="clip0_81:373">
<rect width="60" height="68" fill="white"/>
</clipPath>
</defs>
</svg>
