<svg width="62" height="66" viewBox="0 0 62 66" fill="none" xmlns="http://www.w3.org/2000/svg">
<mask id="path-1-outside-1_81:369" maskUnits="userSpaceOnUse" x="0" y="0" width="62" height="66" fill="black">
<rect fill="white" width="62" height="66"/>
<path d="M15.3283 1C13.1145 1 11.354 3.16795 11.354 5.73972V8.10958H7.41209C7.20051 8.10997 6.99412 8.18474 6.82079 8.32379C6.64745 8.46285 6.51551 8.65949 6.44276 8.88719L1.14376 25.2772C1.08524 25.3979 1.0456 25.5295 1.02663 25.666C0.979619 25.8987 0.995106 26.1424 1.07106 26.3649C1.21576 28.2809 2.1308 30.0264 3.59939 30.9981C4.70924 31.7325 5.99772 31.9225 7.21823 31.6369V63.8013C7.21825 64.1155 7.3272 64.4169 7.52109 64.6391C7.71499 64.8613 7.97796 64.9861 8.25218 64.9862H14.2984C14.4467 65.0124 14.5983 65.0012 14.7425 64.9535C14.8868 64.9059 15.0202 64.8227 15.1336 64.71C15.247 64.5972 15.3376 64.4575 15.3991 64.3006C15.4606 64.1437 15.4916 63.9733 15.4898 63.8013V48.3833H21.6936V63.8013C21.692 63.9724 21.7228 64.1418 21.7839 64.298C21.8449 64.4542 21.9347 64.5934 22.0472 64.706C22.1596 64.8186 22.292 64.9019 22.4353 64.9503C22.5785 64.9987 22.7292 65.0109 22.8769 64.9862C22.885 64.9863 22.8931 64.9863 22.9012 64.9862H53.7461C54.0203 64.9861 54.2832 64.8613 54.4771 64.6391C54.671 64.4169 54.78 64.1155 54.78 63.8013V31.6369C56.0005 31.9225 57.289 31.7325 58.3988 30.9981C59.8686 30.0256 60.7837 28.2781 60.9272 26.3603C61.0077 26.1275 61.0219 25.8715 60.9676 25.6289C60.9468 25.504 60.9086 25.3836 60.8545 25.2725L55.5595 8.88719C55.4868 8.65949 55.3548 8.46285 55.1815 8.32379C55.0082 8.18474 54.8018 8.10997 54.5902 8.10958H50.6442V5.73972C50.6442 3.16795 48.8877 1 46.674 1H15.3283ZM15.3283 3.36986H46.674C47.7162 3.36986 48.5763 4.37302 48.5763 5.73972V8.10958H13.4219V5.73972C13.4219 4.37302 14.286 3.36986 15.3283 3.36986ZM8.13101 10.4794H53.8713L58.8956 26.0316C58.8454 27.2367 58.2828 28.3358 57.3649 28.943C56.4037 29.5791 55.2242 29.5791 54.263 28.943C53.3019 28.3072 52.7121 27.1369 52.7121 25.865C52.7125 25.8248 52.7112 25.7847 52.7081 25.7447C52.6861 25.4661 52.5788 25.2054 52.4052 25.0087C52.382 24.9811 52.3578 24.9549 52.3325 24.93C52.3311 24.93 52.3298 24.93 52.3284 24.93C52.1674 24.7789 51.9703 24.6869 51.763 24.6662C51.6957 24.6602 51.6281 24.6617 51.561 24.6708C51.5597 24.6708 51.5583 24.6708 51.557 24.6708C51.3166 24.7029 51.0936 24.8307 50.9269 25.0318C50.9269 25.0334 50.9269 25.0349 50.9269 25.0365C50.9028 25.0645 50.8799 25.0938 50.8583 25.1244C50.8583 25.126 50.8583 25.1275 50.8583 25.129C50.8381 25.1589 50.8193 25.1898 50.8017 25.2216C50.8004 25.2232 50.799 25.2247 50.7977 25.2262C50.7907 25.24 50.784 25.2539 50.7775 25.2679C50.7676 25.2861 50.7582 25.3046 50.7492 25.3235C50.7492 25.325 50.7492 25.3265 50.7492 25.3281C50.7342 25.3628 50.7208 25.3983 50.7088 25.4345C50.7088 25.4361 50.7088 25.4376 50.7088 25.4392C50.6966 25.474 50.6858 25.5096 50.6765 25.5456C50.6765 25.5472 50.6765 25.5487 50.6765 25.5503C50.6682 25.5869 50.6615 25.624 50.6563 25.6613C50.6563 25.6629 50.6563 25.6644 50.6563 25.666C50.6506 25.7043 50.6466 25.7429 50.6442 25.7817C50.6434 25.8094 50.6434 25.8372 50.6442 25.865C50.6442 27.1369 50.0545 28.3072 49.0933 28.943C48.1321 29.5791 46.9526 29.5791 45.9914 28.943C45.0302 28.3072 44.4405 27.1369 44.4405 25.865C44.4409 25.8248 44.4396 25.7847 44.4365 25.7447C44.4144 25.4661 44.3071 25.2054 44.1335 25.0087C44.1104 24.9811 44.0862 24.9549 44.0608 24.93C44.0595 24.93 44.0581 24.93 44.0568 24.93C43.8958 24.7789 43.6987 24.6869 43.4914 24.6662C43.4241 24.6602 43.3564 24.6617 43.2894 24.6708C43.2881 24.6708 43.2867 24.6708 43.2854 24.6708C43.045 24.7029 42.822 24.8307 42.6553 25.0318C42.6553 25.0334 42.6553 25.0349 42.6553 25.0365C42.6312 25.0645 42.6082 25.0938 42.5867 25.1244C42.5866 25.126 42.5866 25.1275 42.5867 25.129C42.5665 25.1589 42.5477 25.1898 42.5301 25.2216C42.5288 25.2232 42.5274 25.2247 42.5261 25.2262C42.5191 25.24 42.5124 25.2539 42.5059 25.2679C42.496 25.2861 42.4866 25.3046 42.4776 25.3235C42.4776 25.325 42.4776 25.3265 42.4776 25.3281C42.4626 25.3628 42.4492 25.3983 42.4372 25.4345C42.4372 25.4361 42.4372 25.4376 42.4372 25.4392C42.425 25.474 42.4142 25.5096 42.4049 25.5456C42.4049 25.5472 42.4049 25.5487 42.4049 25.5503C42.3966 25.5869 42.3899 25.624 42.3847 25.6613C42.3847 25.6629 42.3847 25.6644 42.3847 25.666C42.379 25.7043 42.375 25.7429 42.3726 25.7817C42.3717 25.8094 42.3717 25.8372 42.3726 25.865C42.3726 27.1369 41.7828 28.3072 40.8217 28.943C39.8605 29.5791 38.681 29.5791 37.7198 28.943C36.7586 28.3072 36.1688 27.1369 36.1689 25.865C36.1693 25.8248 36.168 25.7847 36.1648 25.7447C36.1428 25.4661 36.0355 25.2054 35.8619 25.0087C35.8388 24.9811 35.8146 24.9549 35.7892 24.93C35.7879 24.93 35.7865 24.93 35.7852 24.93C35.6242 24.7789 35.4271 24.6869 35.2197 24.6662C35.1525 24.6602 35.0848 24.6617 35.0178 24.6708C35.0165 24.6708 35.0151 24.6708 35.0138 24.6708C34.7733 24.7029 34.5504 24.8307 34.3837 25.0318C34.3837 25.0334 34.3837 25.0349 34.3837 25.0365C34.3596 25.0645 34.3366 25.0938 34.315 25.1244C34.315 25.126 34.315 25.1275 34.315 25.129C34.2949 25.1589 34.276 25.1898 34.2585 25.2216C34.2571 25.2232 34.2558 25.2247 34.2545 25.2262C34.2475 25.24 34.2407 25.2539 34.2343 25.2679C34.2244 25.2861 34.215 25.3046 34.206 25.3235C34.206 25.325 34.206 25.3265 34.206 25.3281C34.191 25.3628 34.1775 25.3983 34.1656 25.4345C34.1656 25.4361 34.1656 25.4376 34.1656 25.4392C34.1534 25.474 34.1426 25.5096 34.1333 25.5456C34.1333 25.5472 34.1333 25.5487 34.1333 25.5503C34.125 25.5869 34.1183 25.624 34.1131 25.6613C34.1131 25.6629 34.1131 25.6644 34.1131 25.666C34.1074 25.7043 34.1034 25.7429 34.101 25.7817C34.1001 25.8094 34.1001 25.8372 34.101 25.865C34.101 27.1369 33.5112 28.3072 32.55 28.943C31.5889 29.5791 30.4093 29.5791 29.4482 28.943C28.487 28.3072 27.8972 27.1369 27.8973 25.865C27.8977 25.8248 27.8963 25.7847 27.8932 25.7447C27.8712 25.4661 27.7639 25.2054 27.5903 25.0087C27.5672 24.9811 27.5429 24.9549 27.5176 24.93C27.5163 24.93 27.5149 24.93 27.5136 24.93C27.3526 24.7789 27.1555 24.6869 26.9481 24.6662C26.8808 24.6602 26.8132 24.6617 26.7462 24.6708C26.7448 24.6708 26.7435 24.6708 26.7421 24.6708C26.5017 24.7029 26.2788 24.8307 26.1121 25.0318C26.1121 25.0334 26.1121 25.0349 26.1121 25.0365C26.0879 25.0645 26.065 25.0938 26.0434 25.1244C26.0434 25.126 26.0434 25.1275 26.0434 25.129C26.0233 25.1589 26.0044 25.1898 25.9869 25.2216C25.9855 25.2232 25.9842 25.2247 25.9828 25.2262C25.9759 25.24 25.9691 25.2539 25.9626 25.2679C25.9528 25.2861 25.9434 25.3046 25.9344 25.3235C25.9344 25.325 25.9344 25.3265 25.9344 25.3281C25.9194 25.3628 25.9059 25.3983 25.894 25.4345C25.894 25.4361 25.894 25.4376 25.894 25.4392C25.8817 25.474 25.871 25.5096 25.8617 25.5456C25.8617 25.5472 25.8617 25.5487 25.8617 25.5503C25.8534 25.5869 25.8467 25.624 25.8415 25.6613C25.8415 25.6629 25.8415 25.6644 25.8415 25.666C25.8358 25.7043 25.8317 25.7429 25.8294 25.7817C25.8285 25.8094 25.8285 25.8372 25.8294 25.865C25.8294 27.1369 25.2396 28.3072 24.2784 28.943C23.3173 29.5791 22.1377 29.5791 21.1766 28.943C20.2154 28.3072 19.6256 27.1369 19.6256 25.865C19.6261 25.8248 19.6247 25.7847 19.6216 25.7447C19.5996 25.4661 19.4923 25.2054 19.3187 25.0087C19.2956 24.9811 19.2713 24.9549 19.246 24.93C19.2446 24.93 19.2433 24.93 19.242 24.93C19.0809 24.7789 18.8839 24.6869 18.6765 24.6662C18.6092 24.6602 18.5416 24.6617 18.4746 24.6708C18.4732 24.6708 18.4719 24.6708 18.4705 24.6708C18.2301 24.7029 18.0071 24.8307 17.8405 25.0318C17.8405 25.0334 17.8405 25.0349 17.8405 25.0365C17.8163 25.0645 17.7934 25.0938 17.7718 25.1244C17.7718 25.126 17.7718 25.1275 17.7718 25.129C17.7517 25.1589 17.7328 25.1898 17.7153 25.2216C17.7139 25.2232 17.7126 25.2247 17.7112 25.2262C17.7042 25.24 17.6975 25.2539 17.691 25.2679C17.6812 25.2861 17.6717 25.3046 17.6628 25.3235C17.6628 25.325 17.6628 25.3265 17.6628 25.3281C17.6478 25.3628 17.6343 25.3983 17.6224 25.4345C17.6224 25.4361 17.6224 25.4376 17.6224 25.4392C17.6101 25.474 17.5993 25.5096 17.5901 25.5456C17.5901 25.5472 17.5901 25.5487 17.5901 25.5503C17.5818 25.5869 17.575 25.624 17.5699 25.6613C17.5699 25.6629 17.5699 25.6644 17.5699 25.666C17.5642 25.7043 17.5601 25.7429 17.5577 25.7817C17.5569 25.8094 17.5569 25.8372 17.5577 25.865C17.5578 27.1369 16.968 28.3072 16.0068 28.943C15.0457 29.5791 13.8661 29.5791 12.905 28.943C11.9438 28.3072 11.354 27.1369 11.354 25.865C11.3545 25.8248 11.3531 25.7847 11.35 25.7447C11.328 25.4661 11.2207 25.2054 11.0471 25.0087C11.024 24.9811 10.9997 24.9549 10.9744 24.93C10.973 24.93 10.9717 24.93 10.9703 24.93C10.8093 24.7789 10.6123 24.6869 10.4049 24.6662C10.3376 24.6602 10.27 24.6617 10.203 24.6708C10.2016 24.6708 10.2003 24.6708 10.1989 24.6708C9.9585 24.7029 9.73553 24.8307 9.56885 25.0318C9.56885 25.0334 9.56885 25.0349 9.56885 25.0365C9.5447 25.0645 9.52179 25.0938 9.50019 25.1244C9.50019 25.126 9.50019 25.1275 9.50019 25.129C9.48007 25.1589 9.4612 25.1898 9.44365 25.2216C9.4423 25.2232 9.44095 25.2247 9.43961 25.2262C9.43263 25.24 9.4259 25.2539 9.41941 25.2679C9.40955 25.2861 9.40012 25.3046 9.39114 25.3235C9.39114 25.325 9.39114 25.3265 9.39114 25.3281C9.37617 25.3628 9.36269 25.3983 9.35075 25.4345C9.35075 25.4361 9.35075 25.4376 9.35075 25.4392C9.33851 25.474 9.32773 25.5096 9.31844 25.5456C9.31844 25.5472 9.31844 25.5487 9.31844 25.5503C9.31017 25.5869 9.30343 25.624 9.29825 25.6613C9.29824 25.6629 9.29824 25.6644 9.29825 25.666C9.29255 25.7043 9.28851 25.7429 9.28613 25.7817C9.28528 25.8094 9.28528 25.8372 9.28613 25.865C9.28616 27.1369 8.69638 28.3072 7.7352 28.943C6.77405 29.5791 5.5945 29.5791 4.63335 28.943C3.71662 28.3366 3.15418 27.2395 3.10261 26.0363L8.13101 10.4794ZM10.3201 29.3365C10.7376 29.9909 11.239 30.58 11.871 30.9981C13.4691 32.0556 15.4427 32.0556 17.0408 30.9981C17.6728 30.58 18.1741 29.9909 18.5917 29.3365C19.0093 29.9909 19.5106 30.58 20.1426 30.9981C21.7407 32.0556 23.7143 32.0556 25.3124 30.9981C25.9444 30.58 26.4457 29.9909 26.8633 29.3365C27.2809 29.9909 27.7822 30.58 28.4142 30.9981C30.0123 32.0556 31.9859 32.0556 33.584 30.9981C34.216 30.58 34.7174 29.9909 35.1349 29.3365C35.5525 29.9909 36.0538 30.58 36.6859 30.9981C38.284 32.0556 40.2575 32.0556 41.8556 30.9981C42.4876 30.58 42.989 29.9909 43.4065 29.3365C43.8241 29.9909 44.3255 30.58 44.9575 30.9981C46.5556 32.0556 48.5291 32.0556 50.1272 30.9981C50.7592 30.58 51.2606 29.9909 51.6782 29.3365C51.9691 29.7924 52.3137 30.1918 52.7121 30.5399V62.6163H23.7615V47.1984C23.7614 46.8841 23.6525 46.5827 23.4586 46.3605C23.2647 46.1383 23.0017 46.0135 22.7275 46.0134H14.4559C14.1817 46.0135 13.9187 46.1383 13.7248 46.3605C13.5309 46.5827 13.422 46.8841 13.4219 47.1984V62.6163H9.28613V30.5399C9.68453 30.1918 10.0292 29.7924 10.3201 29.3365ZM33.067 38.9177C32.7928 38.9178 32.5298 39.0426 32.3359 39.2648C32.142 39.487 32.0331 39.7884 32.0331 40.1027V54.3218C32.0331 54.6361 32.142 54.9374 32.3359 55.1597C32.5298 55.3819 32.7928 55.5067 33.067 55.5067H47.5424C47.8166 55.5067 48.0795 55.3819 48.2734 55.1597C48.4673 54.9374 48.5763 54.6361 48.5763 54.3218V40.1027C48.5763 39.7884 48.4673 39.487 48.2734 39.2648C48.0795 39.0426 47.8166 38.9178 47.5424 38.9177H33.067ZM34.101 41.2876H46.5084V53.1369H34.101V41.2876Z"/>
</mask>
<path d="M15.3283 1C13.1145 1 11.354 3.16795 11.354 5.73972V8.10958H7.41209C7.20051 8.10997 6.99412 8.18474 6.82079 8.32379C6.64745 8.46285 6.51551 8.65949 6.44276 8.88719L1.14376 25.2772C1.08524 25.3979 1.0456 25.5295 1.02663 25.666C0.979619 25.8987 0.995106 26.1424 1.07106 26.3649C1.21576 28.2809 2.1308 30.0264 3.59939 30.9981C4.70924 31.7325 5.99772 31.9225 7.21823 31.6369V63.8013C7.21825 64.1155 7.3272 64.4169 7.52109 64.6391C7.71499 64.8613 7.97796 64.9861 8.25218 64.9862H14.2984C14.4467 65.0124 14.5983 65.0012 14.7425 64.9535C14.8868 64.9059 15.0202 64.8227 15.1336 64.71C15.247 64.5972 15.3376 64.4575 15.3991 64.3006C15.4606 64.1437 15.4916 63.9733 15.4898 63.8013V48.3833H21.6936V63.8013C21.692 63.9724 21.7228 64.1418 21.7839 64.298C21.8449 64.4542 21.9347 64.5934 22.0472 64.706C22.1596 64.8186 22.292 64.9019 22.4353 64.9503C22.5785 64.9987 22.7292 65.0109 22.8769 64.9862C22.885 64.9863 22.8931 64.9863 22.9012 64.9862H53.7461C54.0203 64.9861 54.2832 64.8613 54.4771 64.6391C54.671 64.4169 54.78 64.1155 54.78 63.8013V31.6369C56.0005 31.9225 57.289 31.7325 58.3988 30.9981C59.8686 30.0256 60.7837 28.2781 60.9272 26.3603C61.0077 26.1275 61.0219 25.8715 60.9676 25.6289C60.9468 25.504 60.9086 25.3836 60.8545 25.2725L55.5595 8.88719C55.4868 8.65949 55.3548 8.46285 55.1815 8.32379C55.0082 8.18474 54.8018 8.10997 54.5902 8.10958H50.6442V5.73972C50.6442 3.16795 48.8877 1 46.674 1H15.3283ZM15.3283 3.36986H46.674C47.7162 3.36986 48.5763 4.37302 48.5763 5.73972V8.10958H13.4219V5.73972C13.4219 4.37302 14.286 3.36986 15.3283 3.36986ZM8.13101 10.4794H53.8713L58.8956 26.0316C58.8454 27.2367 58.2828 28.3358 57.3649 28.943C56.4037 29.5791 55.2242 29.5791 54.263 28.943C53.3019 28.3072 52.7121 27.1369 52.7121 25.865C52.7125 25.8248 52.7112 25.7847 52.7081 25.7447C52.6861 25.4661 52.5788 25.2054 52.4052 25.0087C52.382 24.9811 52.3578 24.9549 52.3325 24.93C52.3311 24.93 52.3298 24.93 52.3284 24.93C52.1674 24.7789 51.9703 24.6869 51.763 24.6662C51.6957 24.6602 51.6281 24.6617 51.561 24.6708C51.5597 24.6708 51.5583 24.6708 51.557 24.6708C51.3166 24.7029 51.0936 24.8307 50.9269 25.0318C50.9269 25.0334 50.9269 25.0349 50.9269 25.0365C50.9028 25.0645 50.8799 25.0938 50.8583 25.1244C50.8583 25.126 50.8583 25.1275 50.8583 25.129C50.8381 25.1589 50.8193 25.1898 50.8017 25.2216C50.8004 25.2232 50.799 25.2247 50.7977 25.2262C50.7907 25.24 50.784 25.2539 50.7775 25.2679C50.7676 25.2861 50.7582 25.3046 50.7492 25.3235C50.7492 25.325 50.7492 25.3265 50.7492 25.3281C50.7342 25.3628 50.7208 25.3983 50.7088 25.4345C50.7088 25.4361 50.7088 25.4376 50.7088 25.4392C50.6966 25.474 50.6858 25.5096 50.6765 25.5456C50.6765 25.5472 50.6765 25.5487 50.6765 25.5503C50.6682 25.5869 50.6615 25.624 50.6563 25.6613C50.6563 25.6629 50.6563 25.6644 50.6563 25.666C50.6506 25.7043 50.6466 25.7429 50.6442 25.7817C50.6434 25.8094 50.6434 25.8372 50.6442 25.865C50.6442 27.1369 50.0545 28.3072 49.0933 28.943C48.1321 29.5791 46.9526 29.5791 45.9914 28.943C45.0302 28.3072 44.4405 27.1369 44.4405 25.865C44.4409 25.8248 44.4396 25.7847 44.4365 25.7447C44.4144 25.4661 44.3071 25.2054 44.1335 25.0087C44.1104 24.9811 44.0862 24.9549 44.0608 24.93C44.0595 24.93 44.0581 24.93 44.0568 24.93C43.8958 24.7789 43.6987 24.6869 43.4914 24.6662C43.4241 24.6602 43.3564 24.6617 43.2894 24.6708C43.2881 24.6708 43.2867 24.6708 43.2854 24.6708C43.045 24.7029 42.822 24.8307 42.6553 25.0318C42.6553 25.0334 42.6553 25.0349 42.6553 25.0365C42.6312 25.0645 42.6082 25.0938 42.5867 25.1244C42.5866 25.126 42.5866 25.1275 42.5867 25.129C42.5665 25.1589 42.5477 25.1898 42.5301 25.2216C42.5288 25.2232 42.5274 25.2247 42.5261 25.2262C42.5191 25.24 42.5124 25.2539 42.5059 25.2679C42.496 25.2861 42.4866 25.3046 42.4776 25.3235C42.4776 25.325 42.4776 25.3265 42.4776 25.3281C42.4626 25.3628 42.4492 25.3983 42.4372 25.4345C42.4372 25.4361 42.4372 25.4376 42.4372 25.4392C42.425 25.474 42.4142 25.5096 42.4049 25.5456C42.4049 25.5472 42.4049 25.5487 42.4049 25.5503C42.3966 25.5869 42.3899 25.624 42.3847 25.6613C42.3847 25.6629 42.3847 25.6644 42.3847 25.666C42.379 25.7043 42.375 25.7429 42.3726 25.7817C42.3717 25.8094 42.3717 25.8372 42.3726 25.865C42.3726 27.1369 41.7828 28.3072 40.8217 28.943C39.8605 29.5791 38.681 29.5791 37.7198 28.943C36.7586 28.3072 36.1688 27.1369 36.1689 25.865C36.1693 25.8248 36.168 25.7847 36.1648 25.7447C36.1428 25.4661 36.0355 25.2054 35.8619 25.0087C35.8388 24.9811 35.8146 24.9549 35.7892 24.93C35.7879 24.93 35.7865 24.93 35.7852 24.93C35.6242 24.7789 35.4271 24.6869 35.2197 24.6662C35.1525 24.6602 35.0848 24.6617 35.0178 24.6708C35.0165 24.6708 35.0151 24.6708 35.0138 24.6708C34.7733 24.7029 34.5504 24.8307 34.3837 25.0318C34.3837 25.0334 34.3837 25.0349 34.3837 25.0365C34.3596 25.0645 34.3366 25.0938 34.315 25.1244C34.315 25.126 34.315 25.1275 34.315 25.129C34.2949 25.1589 34.276 25.1898 34.2585 25.2216C34.2571 25.2232 34.2558 25.2247 34.2545 25.2262C34.2475 25.24 34.2407 25.2539 34.2343 25.2679C34.2244 25.2861 34.215 25.3046 34.206 25.3235C34.206 25.325 34.206 25.3265 34.206 25.3281C34.191 25.3628 34.1775 25.3983 34.1656 25.4345C34.1656 25.4361 34.1656 25.4376 34.1656 25.4392C34.1534 25.474 34.1426 25.5096 34.1333 25.5456C34.1333 25.5472 34.1333 25.5487 34.1333 25.5503C34.125 25.5869 34.1183 25.624 34.1131 25.6613C34.1131 25.6629 34.1131 25.6644 34.1131 25.666C34.1074 25.7043 34.1034 25.7429 34.101 25.7817C34.1001 25.8094 34.1001 25.8372 34.101 25.865C34.101 27.1369 33.5112 28.3072 32.55 28.943C31.5889 29.5791 30.4093 29.5791 29.4482 28.943C28.487 28.3072 27.8972 27.1369 27.8973 25.865C27.8977 25.8248 27.8963 25.7847 27.8932 25.7447C27.8712 25.4661 27.7639 25.2054 27.5903 25.0087C27.5672 24.9811 27.5429 24.9549 27.5176 24.93C27.5163 24.93 27.5149 24.93 27.5136 24.93C27.3526 24.7789 27.1555 24.6869 26.9481 24.6662C26.8808 24.6602 26.8132 24.6617 26.7462 24.6708C26.7448 24.6708 26.7435 24.6708 26.7421 24.6708C26.5017 24.7029 26.2788 24.8307 26.1121 25.0318C26.1121 25.0334 26.1121 25.0349 26.1121 25.0365C26.0879 25.0645 26.065 25.0938 26.0434 25.1244C26.0434 25.126 26.0434 25.1275 26.0434 25.129C26.0233 25.1589 26.0044 25.1898 25.9869 25.2216C25.9855 25.2232 25.9842 25.2247 25.9828 25.2262C25.9759 25.24 25.9691 25.2539 25.9626 25.2679C25.9528 25.2861 25.9434 25.3046 25.9344 25.3235C25.9344 25.325 25.9344 25.3265 25.9344 25.3281C25.9194 25.3628 25.9059 25.3983 25.894 25.4345C25.894 25.4361 25.894 25.4376 25.894 25.4392C25.8817 25.474 25.871 25.5096 25.8617 25.5456C25.8617 25.5472 25.8617 25.5487 25.8617 25.5503C25.8534 25.5869 25.8467 25.624 25.8415 25.6613C25.8415 25.6629 25.8415 25.6644 25.8415 25.666C25.8358 25.7043 25.8317 25.7429 25.8294 25.7817C25.8285 25.8094 25.8285 25.8372 25.8294 25.865C25.8294 27.1369 25.2396 28.3072 24.2784 28.943C23.3173 29.5791 22.1377 29.5791 21.1766 28.943C20.2154 28.3072 19.6256 27.1369 19.6256 25.865C19.6261 25.8248 19.6247 25.7847 19.6216 25.7447C19.5996 25.4661 19.4923 25.2054 19.3187 25.0087C19.2956 24.9811 19.2713 24.9549 19.246 24.93C19.2446 24.93 19.2433 24.93 19.242 24.93C19.0809 24.7789 18.8839 24.6869 18.6765 24.6662C18.6092 24.6602 18.5416 24.6617 18.4746 24.6708C18.4732 24.6708 18.4719 24.6708 18.4705 24.6708C18.2301 24.7029 18.0071 24.8307 17.8405 25.0318C17.8405 25.0334 17.8405 25.0349 17.8405 25.0365C17.8163 25.0645 17.7934 25.0938 17.7718 25.1244C17.7718 25.126 17.7718 25.1275 17.7718 25.129C17.7517 25.1589 17.7328 25.1898 17.7153 25.2216C17.7139 25.2232 17.7126 25.2247 17.7112 25.2262C17.7042 25.24 17.6975 25.2539 17.691 25.2679C17.6812 25.2861 17.6717 25.3046 17.6628 25.3235C17.6628 25.325 17.6628 25.3265 17.6628 25.3281C17.6478 25.3628 17.6343 25.3983 17.6224 25.4345C17.6224 25.4361 17.6224 25.4376 17.6224 25.4392C17.6101 25.474 17.5993 25.5096 17.5901 25.5456C17.5901 25.5472 17.5901 25.5487 17.5901 25.5503C17.5818 25.5869 17.575 25.624 17.5699 25.6613C17.5699 25.6629 17.5699 25.6644 17.5699 25.666C17.5642 25.7043 17.5601 25.7429 17.5577 25.7817C17.5569 25.8094 17.5569 25.8372 17.5577 25.865C17.5578 27.1369 16.968 28.3072 16.0068 28.943C15.0457 29.5791 13.8661 29.5791 12.905 28.943C11.9438 28.3072 11.354 27.1369 11.354 25.865C11.3545 25.8248 11.3531 25.7847 11.35 25.7447C11.328 25.4661 11.2207 25.2054 11.0471 25.0087C11.024 24.9811 10.9997 24.9549 10.9744 24.93C10.973 24.93 10.9717 24.93 10.9703 24.93C10.8093 24.7789 10.6123 24.6869 10.4049 24.6662C10.3376 24.6602 10.27 24.6617 10.203 24.6708C10.2016 24.6708 10.2003 24.6708 10.1989 24.6708C9.9585 24.7029 9.73553 24.8307 9.56885 25.0318C9.56885 25.0334 9.56885 25.0349 9.56885 25.0365C9.5447 25.0645 9.52179 25.0938 9.50019 25.1244C9.50019 25.126 9.50019 25.1275 9.50019 25.129C9.48007 25.1589 9.4612 25.1898 9.44365 25.2216C9.4423 25.2232 9.44095 25.2247 9.43961 25.2262C9.43263 25.24 9.4259 25.2539 9.41941 25.2679C9.40955 25.2861 9.40012 25.3046 9.39114 25.3235C9.39114 25.325 9.39114 25.3265 9.39114 25.3281C9.37617 25.3628 9.36269 25.3983 9.35075 25.4345C9.35075 25.4361 9.35075 25.4376 9.35075 25.4392C9.33851 25.474 9.32773 25.5096 9.31844 25.5456C9.31844 25.5472 9.31844 25.5487 9.31844 25.5503C9.31017 25.5869 9.30343 25.624 9.29825 25.6613C9.29824 25.6629 9.29824 25.6644 9.29825 25.666C9.29255 25.7043 9.28851 25.7429 9.28613 25.7817C9.28528 25.8094 9.28528 25.8372 9.28613 25.865C9.28616 27.1369 8.69638 28.3072 7.7352 28.943C6.77405 29.5791 5.5945 29.5791 4.63335 28.943C3.71662 28.3366 3.15418 27.2395 3.10261 26.0363L8.13101 10.4794ZM10.3201 29.3365C10.7376 29.9909 11.239 30.58 11.871 30.9981C13.4691 32.0556 15.4427 32.0556 17.0408 30.9981C17.6728 30.58 18.1741 29.9909 18.5917 29.3365C19.0093 29.9909 19.5106 30.58 20.1426 30.9981C21.7407 32.0556 23.7143 32.0556 25.3124 30.9981C25.9444 30.58 26.4457 29.9909 26.8633 29.3365C27.2809 29.9909 27.7822 30.58 28.4142 30.9981C30.0123 32.0556 31.9859 32.0556 33.584 30.9981C34.216 30.58 34.7174 29.9909 35.1349 29.3365C35.5525 29.9909 36.0538 30.58 36.6859 30.9981C38.284 32.0556 40.2575 32.0556 41.8556 30.9981C42.4876 30.58 42.989 29.9909 43.4065 29.3365C43.8241 29.9909 44.3255 30.58 44.9575 30.9981C46.5556 32.0556 48.5291 32.0556 50.1272 30.9981C50.7592 30.58 51.2606 29.9909 51.6782 29.3365C51.9691 29.7924 52.3137 30.1918 52.7121 30.5399V62.6163H23.7615V47.1984C23.7614 46.8841 23.6525 46.5827 23.4586 46.3605C23.2647 46.1383 23.0017 46.0135 22.7275 46.0134H14.4559C14.1817 46.0135 13.9187 46.1383 13.7248 46.3605C13.5309 46.5827 13.422 46.8841 13.4219 47.1984V62.6163H9.28613V30.5399C9.68453 30.1918 10.0292 29.7924 10.3201 29.3365ZM33.067 38.9177C32.7928 38.9178 32.5298 39.0426 32.3359 39.2648C32.142 39.487 32.0331 39.7884 32.0331 40.1027V54.3218C32.0331 54.6361 32.142 54.9374 32.3359 55.1597C32.5298 55.3819 32.7928 55.5067 33.067 55.5067H47.5424C47.8166 55.5067 48.0795 55.3819 48.2734 55.1597C48.4673 54.9374 48.5763 54.6361 48.5763 54.3218V40.1027C48.5763 39.7884 48.4673 39.487 48.2734 39.2648C48.0795 39.0426 47.8166 38.9178 47.5424 38.9177H33.067ZM34.101 41.2876H46.5084V53.1369H34.101V41.2876Z" fill="#659AD8"/>
<path d="M15.3283 1C13.1145 1 11.354 3.16795 11.354 5.73972V8.10958H7.41209C7.20051 8.10997 6.99412 8.18474 6.82079 8.32379C6.64745 8.46285 6.51551 8.65949 6.44276 8.88719L1.14376 25.2772C1.08524 25.3979 1.0456 25.5295 1.02663 25.666C0.979619 25.8987 0.995106 26.1424 1.07106 26.3649C1.21576 28.2809 2.1308 30.0264 3.59939 30.9981C4.70924 31.7325 5.99772 31.9225 7.21823 31.6369V63.8013C7.21825 64.1155 7.3272 64.4169 7.52109 64.6391C7.71499 64.8613 7.97796 64.9861 8.25218 64.9862H14.2984C14.4467 65.0124 14.5983 65.0012 14.7425 64.9535C14.8868 64.9059 15.0202 64.8227 15.1336 64.71C15.247 64.5972 15.3376 64.4575 15.3991 64.3006C15.4606 64.1437 15.4916 63.9733 15.4898 63.8013V48.3833H21.6936V63.8013C21.692 63.9724 21.7228 64.1418 21.7839 64.298C21.8449 64.4542 21.9347 64.5934 22.0472 64.706C22.1596 64.8186 22.292 64.9019 22.4353 64.9503C22.5785 64.9987 22.7292 65.0109 22.8769 64.9862C22.885 64.9863 22.8931 64.9863 22.9012 64.9862H53.7461C54.0203 64.9861 54.2832 64.8613 54.4771 64.6391C54.671 64.4169 54.78 64.1155 54.78 63.8013V31.6369C56.0005 31.9225 57.289 31.7325 58.3988 30.9981C59.8686 30.0256 60.7837 28.2781 60.9272 26.3603C61.0077 26.1275 61.0219 25.8715 60.9676 25.6289C60.9468 25.504 60.9086 25.3836 60.8545 25.2725L55.5595 8.88719C55.4868 8.65949 55.3548 8.46285 55.1815 8.32379C55.0082 8.18474 54.8018 8.10997 54.5902 8.10958H50.6442V5.73972C50.6442 3.16795 48.8877 1 46.674 1H15.3283ZM15.3283 3.36986H46.674C47.7162 3.36986 48.5763 4.37302 48.5763 5.73972V8.10958H13.4219V5.73972C13.4219 4.37302 14.286 3.36986 15.3283 3.36986ZM8.13101 10.4794H53.8713L58.8956 26.0316C58.8454 27.2367 58.2828 28.3358 57.3649 28.943C56.4037 29.5791 55.2242 29.5791 54.263 28.943C53.3019 28.3072 52.7121 27.1369 52.7121 25.865C52.7125 25.8248 52.7112 25.7847 52.7081 25.7447C52.6861 25.4661 52.5788 25.2054 52.4052 25.0087C52.382 24.9811 52.3578 24.9549 52.3325 24.93C52.3311 24.93 52.3298 24.93 52.3284 24.93C52.1674 24.7789 51.9703 24.6869 51.763 24.6662C51.6957 24.6602 51.6281 24.6617 51.561 24.6708C51.5597 24.6708 51.5583 24.6708 51.557 24.6708C51.3166 24.7029 51.0936 24.8307 50.9269 25.0318C50.9269 25.0334 50.9269 25.0349 50.9269 25.0365C50.9028 25.0645 50.8799 25.0938 50.8583 25.1244C50.8583 25.126 50.8583 25.1275 50.8583 25.129C50.8381 25.1589 50.8193 25.1898 50.8017 25.2216C50.8004 25.2232 50.799 25.2247 50.7977 25.2262C50.7907 25.24 50.784 25.2539 50.7775 25.2679C50.7676 25.2861 50.7582 25.3046 50.7492 25.3235C50.7492 25.325 50.7492 25.3265 50.7492 25.3281C50.7342 25.3628 50.7208 25.3983 50.7088 25.4345C50.7088 25.4361 50.7088 25.4376 50.7088 25.4392C50.6966 25.474 50.6858 25.5096 50.6765 25.5456C50.6765 25.5472 50.6765 25.5487 50.6765 25.5503C50.6682 25.5869 50.6615 25.624 50.6563 25.6613C50.6563 25.6629 50.6563 25.6644 50.6563 25.666C50.6506 25.7043 50.6466 25.7429 50.6442 25.7817C50.6434 25.8094 50.6434 25.8372 50.6442 25.865C50.6442 27.1369 50.0545 28.3072 49.0933 28.943C48.1321 29.5791 46.9526 29.5791 45.9914 28.943C45.0302 28.3072 44.4405 27.1369 44.4405 25.865C44.4409 25.8248 44.4396 25.7847 44.4365 25.7447C44.4144 25.4661 44.3071 25.2054 44.1335 25.0087C44.1104 24.9811 44.0862 24.9549 44.0608 24.93C44.0595 24.93 44.0581 24.93 44.0568 24.93C43.8958 24.7789 43.6987 24.6869 43.4914 24.6662C43.4241 24.6602 43.3564 24.6617 43.2894 24.6708C43.2881 24.6708 43.2867 24.6708 43.2854 24.6708C43.045 24.7029 42.822 24.8307 42.6553 25.0318C42.6553 25.0334 42.6553 25.0349 42.6553 25.0365C42.6312 25.0645 42.6082 25.0938 42.5867 25.1244C42.5866 25.126 42.5866 25.1275 42.5867 25.129C42.5665 25.1589 42.5477 25.1898 42.5301 25.2216C42.5288 25.2232 42.5274 25.2247 42.5261 25.2262C42.5191 25.24 42.5124 25.2539 42.5059 25.2679C42.496 25.2861 42.4866 25.3046 42.4776 25.3235C42.4776 25.325 42.4776 25.3265 42.4776 25.3281C42.4626 25.3628 42.4492 25.3983 42.4372 25.4345C42.4372 25.4361 42.4372 25.4376 42.4372 25.4392C42.425 25.474 42.4142 25.5096 42.4049 25.5456C42.4049 25.5472 42.4049 25.5487 42.4049 25.5503C42.3966 25.5869 42.3899 25.624 42.3847 25.6613C42.3847 25.6629 42.3847 25.6644 42.3847 25.666C42.379 25.7043 42.375 25.7429 42.3726 25.7817C42.3717 25.8094 42.3717 25.8372 42.3726 25.865C42.3726 27.1369 41.7828 28.3072 40.8217 28.943C39.8605 29.5791 38.681 29.5791 37.7198 28.943C36.7586 28.3072 36.1688 27.1369 36.1689 25.865C36.1693 25.8248 36.168 25.7847 36.1648 25.7447C36.1428 25.4661 36.0355 25.2054 35.8619 25.0087C35.8388 24.9811 35.8146 24.9549 35.7892 24.93C35.7879 24.93 35.7865 24.93 35.7852 24.93C35.6242 24.7789 35.4271 24.6869 35.2197 24.6662C35.1525 24.6602 35.0848 24.6617 35.0178 24.6708C35.0165 24.6708 35.0151 24.6708 35.0138 24.6708C34.7733 24.7029 34.5504 24.8307 34.3837 25.0318C34.3837 25.0334 34.3837 25.0349 34.3837 25.0365C34.3596 25.0645 34.3366 25.0938 34.315 25.1244C34.315 25.126 34.315 25.1275 34.315 25.129C34.2949 25.1589 34.276 25.1898 34.2585 25.2216C34.2571 25.2232 34.2558 25.2247 34.2545 25.2262C34.2475 25.24 34.2407 25.2539 34.2343 25.2679C34.2244 25.2861 34.215 25.3046 34.206 25.3235C34.206 25.325 34.206 25.3265 34.206 25.3281C34.191 25.3628 34.1775 25.3983 34.1656 25.4345C34.1656 25.4361 34.1656 25.4376 34.1656 25.4392C34.1534 25.474 34.1426 25.5096 34.1333 25.5456C34.1333 25.5472 34.1333 25.5487 34.1333 25.5503C34.125 25.5869 34.1183 25.624 34.1131 25.6613C34.1131 25.6629 34.1131 25.6644 34.1131 25.666C34.1074 25.7043 34.1034 25.7429 34.101 25.7817C34.1001 25.8094 34.1001 25.8372 34.101 25.865C34.101 27.1369 33.5112 28.3072 32.55 28.943C31.5889 29.5791 30.4093 29.5791 29.4482 28.943C28.487 28.3072 27.8972 27.1369 27.8973 25.865C27.8977 25.8248 27.8963 25.7847 27.8932 25.7447C27.8712 25.4661 27.7639 25.2054 27.5903 25.0087C27.5672 24.9811 27.5429 24.9549 27.5176 24.93C27.5163 24.93 27.5149 24.93 27.5136 24.93C27.3526 24.7789 27.1555 24.6869 26.9481 24.6662C26.8808 24.6602 26.8132 24.6617 26.7462 24.6708C26.7448 24.6708 26.7435 24.6708 26.7421 24.6708C26.5017 24.7029 26.2788 24.8307 26.1121 25.0318C26.1121 25.0334 26.1121 25.0349 26.1121 25.0365C26.0879 25.0645 26.065 25.0938 26.0434 25.1244C26.0434 25.126 26.0434 25.1275 26.0434 25.129C26.0233 25.1589 26.0044 25.1898 25.9869 25.2216C25.9855 25.2232 25.9842 25.2247 25.9828 25.2262C25.9759 25.24 25.9691 25.2539 25.9626 25.2679C25.9528 25.2861 25.9434 25.3046 25.9344 25.3235C25.9344 25.325 25.9344 25.3265 25.9344 25.3281C25.9194 25.3628 25.9059 25.3983 25.894 25.4345C25.894 25.4361 25.894 25.4376 25.894 25.4392C25.8817 25.474 25.871 25.5096 25.8617 25.5456C25.8617 25.5472 25.8617 25.5487 25.8617 25.5503C25.8534 25.5869 25.8467 25.624 25.8415 25.6613C25.8415 25.6629 25.8415 25.6644 25.8415 25.666C25.8358 25.7043 25.8317 25.7429 25.8294 25.7817C25.8285 25.8094 25.8285 25.8372 25.8294 25.865C25.8294 27.1369 25.2396 28.3072 24.2784 28.943C23.3173 29.5791 22.1377 29.5791 21.1766 28.943C20.2154 28.3072 19.6256 27.1369 19.6256 25.865C19.6261 25.8248 19.6247 25.7847 19.6216 25.7447C19.5996 25.4661 19.4923 25.2054 19.3187 25.0087C19.2956 24.9811 19.2713 24.9549 19.246 24.93C19.2446 24.93 19.2433 24.93 19.242 24.93C19.0809 24.7789 18.8839 24.6869 18.6765 24.6662C18.6092 24.6602 18.5416 24.6617 18.4746 24.6708C18.4732 24.6708 18.4719 24.6708 18.4705 24.6708C18.2301 24.7029 18.0071 24.8307 17.8405 25.0318C17.8405 25.0334 17.8405 25.0349 17.8405 25.0365C17.8163 25.0645 17.7934 25.0938 17.7718 25.1244C17.7718 25.126 17.7718 25.1275 17.7718 25.129C17.7517 25.1589 17.7328 25.1898 17.7153 25.2216C17.7139 25.2232 17.7126 25.2247 17.7112 25.2262C17.7042 25.24 17.6975 25.2539 17.691 25.2679C17.6812 25.2861 17.6717 25.3046 17.6628 25.3235C17.6628 25.325 17.6628 25.3265 17.6628 25.3281C17.6478 25.3628 17.6343 25.3983 17.6224 25.4345C17.6224 25.4361 17.6224 25.4376 17.6224 25.4392C17.6101 25.474 17.5993 25.5096 17.5901 25.5456C17.5901 25.5472 17.5901 25.5487 17.5901 25.5503C17.5818 25.5869 17.575 25.624 17.5699 25.6613C17.5699 25.6629 17.5699 25.6644 17.5699 25.666C17.5642 25.7043 17.5601 25.7429 17.5577 25.7817C17.5569 25.8094 17.5569 25.8372 17.5577 25.865C17.5578 27.1369 16.968 28.3072 16.0068 28.943C15.0457 29.5791 13.8661 29.5791 12.905 28.943C11.9438 28.3072 11.354 27.1369 11.354 25.865C11.3545 25.8248 11.3531 25.7847 11.35 25.7447C11.328 25.4661 11.2207 25.2054 11.0471 25.0087C11.024 24.9811 10.9997 24.9549 10.9744 24.93C10.973 24.93 10.9717 24.93 10.9703 24.93C10.8093 24.7789 10.6123 24.6869 10.4049 24.6662C10.3376 24.6602 10.27 24.6617 10.203 24.6708C10.2016 24.6708 10.2003 24.6708 10.1989 24.6708C9.9585 24.7029 9.73553 24.8307 9.56885 25.0318C9.56885 25.0334 9.56885 25.0349 9.56885 25.0365C9.5447 25.0645 9.52179 25.0938 9.50019 25.1244C9.50019 25.126 9.50019 25.1275 9.50019 25.129C9.48007 25.1589 9.4612 25.1898 9.44365 25.2216C9.4423 25.2232 9.44095 25.2247 9.43961 25.2262C9.43263 25.24 9.4259 25.2539 9.41941 25.2679C9.40955 25.2861 9.40012 25.3046 9.39114 25.3235C9.39114 25.325 9.39114 25.3265 9.39114 25.3281C9.37617 25.3628 9.36269 25.3983 9.35075 25.4345C9.35075 25.4361 9.35075 25.4376 9.35075 25.4392C9.33851 25.474 9.32773 25.5096 9.31844 25.5456C9.31844 25.5472 9.31844 25.5487 9.31844 25.5503C9.31017 25.5869 9.30343 25.624 9.29825 25.6613C9.29824 25.6629 9.29824 25.6644 9.29825 25.666C9.29255 25.7043 9.28851 25.7429 9.28613 25.7817C9.28528 25.8094 9.28528 25.8372 9.28613 25.865C9.28616 27.1369 8.69638 28.3072 7.7352 28.943C6.77405 29.5791 5.5945 29.5791 4.63335 28.943C3.71662 28.3366 3.15418 27.2395 3.10261 26.0363L8.13101 10.4794ZM10.3201 29.3365C10.7376 29.9909 11.239 30.58 11.871 30.9981C13.4691 32.0556 15.4427 32.0556 17.0408 30.9981C17.6728 30.58 18.1741 29.9909 18.5917 29.3365C19.0093 29.9909 19.5106 30.58 20.1426 30.9981C21.7407 32.0556 23.7143 32.0556 25.3124 30.9981C25.9444 30.58 26.4457 29.9909 26.8633 29.3365C27.2809 29.9909 27.7822 30.58 28.4142 30.9981C30.0123 32.0556 31.9859 32.0556 33.584 30.9981C34.216 30.58 34.7174 29.9909 35.1349 29.3365C35.5525 29.9909 36.0538 30.58 36.6859 30.9981C38.284 32.0556 40.2575 32.0556 41.8556 30.9981C42.4876 30.58 42.989 29.9909 43.4065 29.3365C43.8241 29.9909 44.3255 30.58 44.9575 30.9981C46.5556 32.0556 48.5291 32.0556 50.1272 30.9981C50.7592 30.58 51.2606 29.9909 51.6782 29.3365C51.9691 29.7924 52.3137 30.1918 52.7121 30.5399V62.6163H23.7615V47.1984C23.7614 46.8841 23.6525 46.5827 23.4586 46.3605C23.2647 46.1383 23.0017 46.0135 22.7275 46.0134H14.4559C14.1817 46.0135 13.9187 46.1383 13.7248 46.3605C13.5309 46.5827 13.422 46.8841 13.4219 47.1984V62.6163H9.28613V30.5399C9.68453 30.1918 10.0292 29.7924 10.3201 29.3365ZM33.067 38.9177C32.7928 38.9178 32.5298 39.0426 32.3359 39.2648C32.142 39.487 32.0331 39.7884 32.0331 40.1027V54.3218C32.0331 54.6361 32.142 54.9374 32.3359 55.1597C32.5298 55.3819 32.7928 55.5067 33.067 55.5067H47.5424C47.8166 55.5067 48.0795 55.3819 48.2734 55.1597C48.4673 54.9374 48.5763 54.6361 48.5763 54.3218V40.1027C48.5763 39.7884 48.4673 39.487 48.2734 39.2648C48.0795 39.0426 47.8166 38.9178 47.5424 38.9177H33.067ZM34.101 41.2876H46.5084V53.1369H34.101V41.2876Z" stroke="#659AD8" stroke-width="2" mask="url(#path-1-outside-1_81:369)"/>
</svg>
