<svg width="44" height="61" viewBox="0 0 44 61" fill="none" xmlns="http://www.w3.org/2000/svg">
<path d="M31.8001 37.7849C32.7871 37.7849 33.4451 38.5033 33.4451 39.2217C33.4451 40.0837 34.1032 40.6584 35.0902 40.6584C36.0773 40.6584 36.7353 40.0837 36.7353 39.2217C36.7353 37.3539 35.4192 35.7734 33.4451 35.1987V34.9114C33.4451 34.0493 32.7871 33.4746 31.8001 33.4746C30.813 33.4746 30.155 34.0493 30.155 34.9114V35.1987C28.1809 35.7734 26.8649 37.3539 26.8649 39.2217C26.8649 41.6641 29.0035 43.5319 31.8001 43.5319C32.7871 43.5319 33.4451 44.1066 33.4451 44.9687C33.4451 45.8308 32.7871 46.4055 31.8001 46.4055C30.813 46.4055 30.155 45.8308 30.155 44.9687C30.155 44.1066 29.497 43.5319 28.5099 43.5319C27.5229 43.5319 26.8649 44.1066 26.8649 44.9687C26.8649 46.8365 28.1809 48.4169 30.155 48.9916V49.279C30.155 50.141 30.813 50.7157 31.8001 50.7157C32.7871 50.7157 33.4451 50.141 33.4451 49.279V48.9916C35.4192 48.4169 36.7353 46.8365 36.7353 44.9687C36.7353 42.5262 34.5967 40.6584 31.8001 40.6584C30.813 40.6584 30.155 40.0837 30.155 39.2217C30.155 38.3596 30.813 37.7849 31.8001 37.7849Z" fill="#666565"/>
<path d="M42.3285 0.573135C41.835 0.285783 41.1769 0.429459 40.6834 0.716811L35.0902 4.45238L29.4969 0.860487C28.8389 0.429459 28.1809 0.429459 27.5229 0.860487L21.9296 4.45238L16.3364 0.860487C15.6783 0.429459 15.0203 0.429459 14.3623 0.860487L8.76905 4.45238L3.17581 0.860487C2.68229 0.573135 2.02427 0.429459 1.53074 0.716811C0.872716 0.860487 0.543701 1.29151 0.543701 1.86622V59.3366C0.543701 59.9113 0.872716 60.3423 1.53074 60.6297C2.02427 60.917 2.68229 60.7733 3.17581 60.486L8.76905 56.8941L14.3623 60.486C15.0203 60.917 15.6783 60.917 16.3364 60.486L21.9296 56.8941L27.5229 60.486C28.1809 60.917 28.8389 60.917 29.4969 60.486L35.0902 56.8941L40.6834 60.486C41.0124 60.6297 41.3414 60.7733 41.6705 60.7733C41.9995 60.7733 42.164 60.7733 42.3285 60.6297C42.822 60.3423 43.3155 59.9113 43.3155 59.3366V1.86622C43.3155 1.29151 42.9865 0.860487 42.3285 0.573135ZM40.0254 56.4631L36.0772 53.8769C35.4192 53.4459 34.7612 53.4459 34.1031 53.8769L28.5099 57.6125L22.9167 54.0206C22.5876 53.7332 22.2586 53.5895 21.9296 53.5895C21.6006 53.5895 21.2716 53.7332 20.9426 53.8769L15.3493 57.6125L9.7561 54.0206C9.09807 53.5895 8.44004 53.5895 7.78201 54.0206L3.83384 56.4631V4.73974L7.78201 7.3259C8.44004 7.75693 9.09807 7.75693 9.7561 7.3259L15.3493 3.73401L20.9426 7.3259C21.6006 7.75693 22.2586 7.75693 22.9167 7.3259L28.5099 3.73401L34.1031 7.3259C34.7612 7.75693 35.4192 7.75693 36.0772 7.3259L40.0254 4.73974V56.4631Z" fill="#666565"/>
<path d="M23.5747 10.4868H10.4141C9.42707 10.4868 8.76904 11.0615 8.76904 11.9236C8.76904 12.7856 9.42707 13.3603 10.4141 13.3603H23.5747C24.5617 13.3603 25.2197 12.7856 25.2197 11.9236C25.2197 11.0615 24.5617 10.4868 23.5747 10.4868Z" fill="#666565"/>
<path d="M30.155 13.3603H33.4451C34.4321 13.3603 35.0902 12.7856 35.0902 11.9236C35.0902 11.0615 34.4321 10.4868 33.4451 10.4868H30.155C29.1679 10.4868 28.5099 11.0615 28.5099 11.9236C28.5099 12.7856 29.1679 13.3603 30.155 13.3603Z" fill="#666565"/>
<path d="M23.5747 16.2339H10.4141C9.42707 16.2339 8.76904 16.8086 8.76904 17.6706C8.76904 18.5327 9.42707 19.1074 10.4141 19.1074H23.5747C24.5617 19.1074 25.2197 18.5327 25.2197 17.6706C25.2197 16.8086 24.5617 16.2339 23.5747 16.2339Z" fill="#666565"/>
<path d="M30.155 19.1074H33.4451C34.4321 19.1074 35.0902 18.5327 35.0902 17.6706C35.0902 16.8086 34.4321 16.2339 33.4451 16.2339H30.155C29.1679 16.2339 28.5099 16.8086 28.5099 17.6706C28.5099 18.5327 29.1679 19.1074 30.155 19.1074Z" fill="#666565"/>
<path d="M23.5747 21.981H10.4141C9.42707 21.981 8.76904 22.5557 8.76904 23.4177C8.76904 24.2798 9.42707 24.8545 10.4141 24.8545H23.5747C24.5617 24.8545 25.2197 24.2798 25.2197 23.4177C25.2197 22.5557 24.5617 21.981 23.5747 21.981Z" fill="#666565"/>
<path d="M30.155 24.8545H33.4451C34.4321 24.8545 35.0902 24.2798 35.0902 23.4177C35.0902 22.5557 34.4321 21.981 33.4451 21.981H30.155C29.1679 21.981 28.5099 22.5557 28.5099 23.4177C28.5099 24.2798 29.1679 24.8545 30.155 24.8545Z" fill="#666565"/>
<path d="M23.5747 27.7275H10.4141C9.42707 27.7275 8.76904 28.3022 8.76904 29.1643C8.76904 30.0264 9.42707 30.6011 10.4141 30.6011H23.5747C24.5617 30.6011 25.2197 30.0264 25.2197 29.1643C25.2197 28.3022 24.5617 27.7275 23.5747 27.7275Z" fill="#666565"/>
<path d="M23.5747 33.4746H10.4141C9.42707 33.4746 8.76904 34.0493 8.76904 34.9114C8.76904 35.7735 9.42707 36.3482 10.4141 36.3482H23.5747C24.5617 36.3482 25.2197 35.7735 25.2197 34.9114C25.2197 34.0493 24.5617 33.4746 23.5747 33.4746Z" fill="#666565"/>
<path d="M30.155 30.6011H33.4451C34.4321 30.6011 35.0902 30.0264 35.0902 29.1643C35.0902 28.3022 34.4321 27.7275 33.4451 27.7275H30.155C29.1679 27.7275 28.5099 28.3022 28.5099 29.1643C28.5099 30.0264 29.1679 30.6011 30.155 30.6011Z" fill="#666565"/>
</svg>
