<svg width="67" height="54" viewBox="0 0 67 54" fill="none" xmlns="http://www.w3.org/2000/svg">
<path d="M12.6923 50.1429C12.6923 50.6494 12.8007 51.151 13.0113 51.6189C13.2218 52.0869 13.5305 52.5121 13.9196 52.8703C14.3087 53.2284 14.7706 53.5126 15.279 53.7064C15.7874 53.9002 16.3323 54 16.8826 54C17.9939 54 19.0597 53.5936 19.8455 52.8703C20.2346 52.5121 20.5433 52.0869 20.7538 51.6189C20.9644 51.151 21.0728 50.6494 21.0728 50.1429C21.0728 49.1199 20.6313 48.1388 19.8455 47.4154C19.0597 46.6921 17.9939 46.2857 16.8826 46.2857C15.7712 46.2857 14.7054 46.6921 13.9196 47.4154C13.1338 48.1388 12.6923 49.1199 12.6923 50.1429ZM50.4046 50.1429C50.4046 50.6494 50.513 51.151 50.7236 51.6189C50.9342 52.0869 51.2428 52.5121 51.6319 52.8703C52.021 53.2284 52.4829 53.5126 52.9913 53.7064C53.4997 53.9002 54.0446 54 54.5949 54C55.7062 54 56.772 53.5936 57.5578 52.8703C57.9469 52.5121 58.2556 52.0869 58.4662 51.6189C58.6768 51.151 58.7851 50.6494 58.7851 50.1429C58.7851 49.1199 58.3437 48.1388 57.5578 47.4154C56.772 46.6921 55.7062 46.2857 54.5949 46.2857C53.4836 46.2857 52.4177 46.6921 51.6319 47.4154C50.8461 48.1388 50.4046 49.1199 50.4046 50.1429ZM0 1.92857C0 2.44006 0.220736 2.9306 0.613649 3.29228C1.00656 3.65395 1.53947 3.85714 2.09513 3.85714H6.44881L9.05096 14.1017L12.6923 30.8571C12.6923 30.996 12.7635 31.1156 12.7803 31.2506L10.6474 40.0834C10.5785 40.3653 10.5794 40.6579 10.6502 40.9394C10.721 41.2208 10.8598 41.484 11.0563 41.7094C11.2527 41.9347 11.5018 42.1164 11.7851 42.2409C12.0683 42.3654 12.3784 42.4295 12.6923 42.4286H60.2266C60.7822 42.4286 61.3152 42.2254 61.7081 41.8637C62.101 41.502 62.3217 41.0115 62.3217 40.5C62.3217 39.9885 62.101 39.498 61.7081 39.1363C61.3152 38.7746 60.7822 38.5714 60.2266 38.5714H15.307L16.2666 34.5986C16.4761 34.6294 16.6647 34.7143 16.8826 34.7143H55.0768C57.3898 34.7143 58.7851 34.2939 59.8997 31.8214L66.7047 12.6051C67.8864 9.16072 65.2926 7.71429 62.9754 7.71429H12.6923C12.3655 7.71429 12.0805 7.81843 11.7746 7.884L10.1488 1.48886C10.041 1.06516 9.78074 0.687476 9.41026 0.417176C9.03978 0.146876 8.58089 -0.000147344 8.10815 1.10807e-07H2.09513C1.53947 1.10807e-07 1.00656 0.203189 0.613649 0.564866C0.220736 0.926543 0 1.41708 0 1.92857ZM12.7761 11.5714H62.6611L55.9735 30.4676C55.8939 30.6334 55.8268 30.753 55.7765 30.834C55.6383 30.8456 55.4204 30.8571 55.0768 30.8571H16.8826V30.4753L16.8029 30.1011L12.7761 11.5714Z" fill="#E73A3A"/>
</svg>
