<svg width="87" height="46" viewBox="0 0 87 46" fill="none" xmlns="http://www.w3.org/2000/svg">
<path d="M83.8929 0H3.10714C2.28308 0 1.49276 0.302901 0.910061 0.842069C0.327359 1.38124 0 2.1125 0 2.875V43.125C0 43.8875 0.327359 44.6188 0.910061 45.1579C1.49276 45.6971 2.28308 46 3.10714 46H83.8929C84.7169 46 85.5072 45.6971 86.0899 45.1579C86.6726 44.6188 87 43.8875 87 43.125V2.875C87 2.1125 86.6726 1.38124 86.0899 0.842069C85.5072 0.302901 84.7169 0 83.8929 0ZM80.7857 40.25H6.21429V5.75H80.7857V40.25ZM46.6071 27.3125C46.6071 26.9313 46.4435 26.5656 46.1521 26.296C45.8608 26.0264 45.4656 25.875 45.0536 25.875H41.9464C40.0201 25.8768 38.1617 25.2162 36.7321 24.0215C35.3025 22.8268 34.4037 21.1832 34.2101 19.4098C34.0165 17.6364 34.542 15.8597 35.6845 14.4246C36.827 12.9895 38.505 11.9984 40.3929 11.6438V11.5C40.3929 10.7375 40.7202 10.0062 41.3029 9.46707C41.8856 8.9279 42.6759 8.625 43.5 8.625C44.3241 8.625 45.1144 8.9279 45.6971 9.46707C46.2798 10.0062 46.6071 10.7375 46.6071 11.5H49.7143C50.5384 11.5 51.3287 11.8029 51.9114 12.3421C52.4941 12.8812 52.8214 13.6125 52.8214 14.375C52.8214 15.1375 52.4941 15.8688 51.9114 16.4079C51.3287 16.9471 50.5384 17.25 49.7143 17.25H41.9464C41.5344 17.25 41.1392 17.4014 40.8479 17.671C40.5565 17.9406 40.3929 18.3063 40.3929 18.6875C40.3929 19.0687 40.5565 19.4344 40.8479 19.704C41.1392 19.9736 41.5344 20.125 41.9464 20.125H45.0536C47.1137 19.9344 49.1714 20.5088 50.7738 21.7219C52.3762 22.9351 53.3922 24.6875 53.5982 26.5938C53.8042 28.5 53.1834 30.4039 51.8723 31.8866C50.5613 33.3693 48.6673 34.3094 46.6071 34.5C46.6071 35.2625 46.2798 35.9938 45.6971 36.5329C45.1144 37.0721 44.3241 37.375 43.5 37.375C42.6759 37.375 41.8856 37.0721 41.3029 36.5329C40.7202 35.9938 40.3929 35.2625 40.3929 34.5H37.2857C36.4617 34.5 35.6713 34.1971 35.0886 33.6579C34.5059 33.1188 34.1786 32.3875 34.1786 31.625C34.1786 30.8625 34.5059 30.1312 35.0886 29.5921C35.6713 29.0529 36.4617 28.75 37.2857 28.75H45.0536C45.4656 28.75 45.8608 28.5986 46.1521 28.329C46.4435 28.0594 46.6071 27.6937 46.6071 27.3125ZM65.25 11.5C65.25 10.7375 65.5774 10.0062 66.1601 9.46707C66.7428 8.9279 67.5331 8.625 68.3571 8.625H74.5714C75.3955 8.625 76.1858 8.9279 76.7685 9.46707C77.3512 10.0062 77.6786 10.7375 77.6786 11.5C77.6786 12.2625 77.3512 12.9938 76.7685 13.5329C76.1858 14.0721 75.3955 14.375 74.5714 14.375H68.3571C67.5331 14.375 66.7428 14.0721 66.1601 13.5329C65.5774 12.9938 65.25 12.2625 65.25 11.5ZM9.32143 34.5C9.32143 33.7375 9.64879 33.0062 10.2315 32.4671C10.8142 31.9279 11.6045 31.625 12.4286 31.625H18.6429C19.4669 31.625 20.2572 31.9279 20.8399 32.4671C21.4226 33.0062 21.75 33.7375 21.75 34.5C21.75 35.2625 21.4226 35.9938 20.8399 36.5329C20.2572 37.0721 19.4669 37.375 18.6429 37.375H12.4286C11.6045 37.375 10.8142 37.0721 10.2315 36.5329C9.64879 35.9938 9.32143 35.2625 9.32143 34.5Z" fill="#2ECC71"/>
</svg>
