<svg width="70" height="52" viewBox="0 0 70 52" fill="none" xmlns="http://www.w3.org/2000/svg">
<path d="M57.5 15.6184H50V7.80919C50 5.73806 49.2098 3.75176 47.8033 2.28726C46.3968 0.822751 44.4891 0 42.5 0H7.5C5.51088 0 3.60322 0.822751 2.1967 2.28726C0.790177 3.75176 0 5.73806 0 7.80919V44.252C0 44.9424 0.263392 45.6045 0.732233 46.0927C1.20107 46.5809 1.83696 46.8551 2.5 46.8551H10.45C10.9755 48.3627 11.9341 49.6652 13.1954 50.5857C14.4568 51.5062 15.9597 52 17.5 52C19.0403 52 20.5432 51.5062 21.8046 50.5857C23.0659 49.6652 24.0245 48.3627 24.55 46.8551H50.45C50.9755 48.3627 51.9341 49.6652 53.1954 50.5857C54.4568 51.5062 55.9597 52 57.5 52C59.0403 52 60.5432 51.5062 61.8046 50.5857C63.0659 49.6652 64.0245 48.3627 64.55 46.8551H67.5C68.163 46.8551 68.7989 46.5809 69.2678 46.0927C69.7366 45.6045 70 44.9424 70 44.252V28.6337C70 25.1818 68.683 21.8713 66.3388 19.4305C63.9946 16.9896 60.8152 15.6184 57.5 15.6184ZM17.5 46.8551C17.0055 46.8551 16.5222 46.7024 16.1111 46.4164C15.7 46.1304 15.3795 45.7238 15.1903 45.2482C15.0011 44.7725 14.9516 44.2492 15.048 43.7442C15.1445 43.2393 15.3826 42.7754 15.7322 42.4114C16.0819 42.0474 16.5273 41.7994 17.0123 41.699C17.4972 41.5986 17.9999 41.6501 18.4567 41.8471C18.9135 42.0442 19.304 42.3778 19.5787 42.8059C19.8534 43.2339 20 43.7372 20 44.252C20 44.9424 19.7366 45.6045 19.2678 46.0927C18.7989 46.5809 18.163 46.8551 17.5 46.8551ZM45 41.649H24.55C24.0245 40.1414 23.0659 38.8389 21.8046 37.9184C20.5432 36.9979 19.0403 36.5041 17.5 36.5041C15.9597 36.5041 14.4568 36.9979 13.1954 37.9184C11.9341 38.8389 10.9755 40.1414 10.45 41.649H5V33.8398H45V41.649ZM45 28.6337H5V7.80919C5 7.11881 5.26339 6.45671 5.73223 5.96854C6.20107 5.48037 6.83696 5.20612 7.5 5.20612H42.5C43.163 5.20612 43.7989 5.48037 44.2678 5.96854C44.7366 6.45671 45 7.11881 45 7.80919V28.6337ZM57.5 46.8551C57.0055 46.8551 56.5222 46.7024 56.1111 46.4164C55.7 46.1304 55.3795 45.7238 55.1903 45.2482C55.0011 44.7725 54.9516 44.2492 55.048 43.7442C55.1445 43.2393 55.3826 42.7754 55.7322 42.4114C56.0819 42.0474 56.5273 41.7994 57.0123 41.699C57.4972 41.5986 57.9999 41.6501 58.4567 41.8471C58.9135 42.0442 59.304 42.3778 59.5787 42.8059C59.8534 43.2339 60 43.7372 60 44.252C60 44.9424 59.7366 45.6045 59.2678 46.0927C58.7989 46.5809 58.163 46.8551 57.5 46.8551ZM65 41.649H64.55C64.0245 40.1414 63.0659 38.8389 61.8046 37.9184C60.5432 36.9979 59.0403 36.5041 57.5 36.5041C55.9597 36.5041 54.4568 36.9979 53.1954 37.9184C51.9341 38.8389 50.9755 40.1414 50.45 41.649H50V20.8245H52.5V31.2367C52.5 31.9271 52.7634 32.5892 53.2322 33.0774C53.7011 33.5656 54.337 33.8398 55 33.8398H65V41.649ZM57.5 28.6337V20.8245C59.4891 20.8245 61.3968 21.6472 62.8033 23.1117C64.2098 24.5763 65 26.5626 65 28.6337H57.5Z" fill="#6C63FF"/>
</svg>
